<svg width="69" height="68" viewBox="0 0 69 68" fill="none" xmlns="http://www.w3.org/2000/svg">
<path fill-rule="evenodd" clip-rule="evenodd" d="M57.4277 50.1787L55.7817 49.0437C58.7977 44.6677 60.3917 39.5327 60.3917 34.1967C60.3917 19.7517 48.6407 7.99969 34.1957 7.99969C29.3267 7.99969 24.5747 9.34469 20.4537 11.8897L19.4027 10.1877C23.8397 7.44869 28.9557 5.99969 34.1957 5.99969C49.7427 5.99969 62.3917 18.6487 62.3917 34.1967C62.3917 39.9407 60.6757 45.4677 57.4277 50.1787ZM34.1958 62.3921C18.6488 62.3921 5.99982 49.7441 5.99982 34.1961C5.99982 28.6171 7.62682 23.2221 10.7048 18.5961L12.3698 19.7041C9.51082 24.0001 7.99982 29.0121 7.99982 34.1961C7.99982 48.6411 19.7518 60.3921 34.1958 60.3921C39.6668 60.3921 44.9058 58.7241 49.3498 55.5671L50.5078 57.1981C45.7248 60.5961 40.0838 62.3921 34.1958 62.3921ZM59.7959 61.2104C59.9909 61.4054 60.2469 61.5034 60.5029 61.5034C60.7589 61.5034 61.0149 61.4054 61.2099 61.2104C61.6009 60.8194 61.6009 60.1874 61.2099 59.7964L8.59592 7.18239C8.20492 6.79139 7.57192 6.79139 7.18192 7.18239C6.79092 7.57239 6.79092 8.20539 7.18192 8.59639L59.7959 61.2104Z" fill="white"/>
</svg>
