<svg width="26" height="209" viewBox="0 0 26 209" fill="none" xmlns="http://www.w3.org/2000/svg">
<path fill-rule="evenodd" clip-rule="evenodd" d="M16.5109 200.891C16.5109 199.392 15.7645 198.025 14.9377 197.237H9.60476C8.77793 197.999 7.97793 199.366 7.97793 200.891C7.97793 203.652 9.84439 205.413 12.2712 205.413C14.6712 205.413 16.5109 203.652 16.5109 200.891ZM5.5511 201.628C5.5511 199.682 6.21817 198.209 7.20476 197.237H5.79135V194.503H18.2444C22.6974 194.503 25.0176 197.315 25.0176 201.154C25.0176 203.861 24.031 205.492 23.5773 206.359L21.0974 205.754C21.6572 204.887 22.5645 203.283 22.5645 201.154C22.5645 199.077 21.4981 197.237 18.8048 197.237H17.3109C18.2444 198.236 18.9377 199.761 18.9377 201.628C18.9377 205.57 15.9243 208.199 12.2712 208.199C8.56513 208.199 5.5511 205.57 5.5511 201.628Z" fill="#15573F"/>
<path d="M14.9377 197.237L15.1448 197.02L15.0578 196.937H14.9377V197.237ZM9.60476 197.237V196.937H9.48757L9.40141 197.016L9.60476 197.237ZM7.20476 197.237L7.41538 197.45L7.93636 196.937H7.20476V197.237ZM5.79135 197.237H5.49135V197.537H5.79135V197.237ZM5.79135 194.503V194.203H5.49135V194.503H5.79135ZM23.5773 206.359L23.5062 206.651L23.7344 206.706L23.8432 206.498L23.5773 206.359ZM21.0974 205.754L20.8454 205.592L20.6168 205.946L21.0264 206.046L21.0974 205.754ZM17.3109 197.237V196.937H16.62L17.0917 197.441L17.3109 197.237ZM16.8109 200.891C16.8109 199.299 16.0218 197.856 15.1448 197.02L14.7306 197.454C15.5073 198.195 16.2109 199.486 16.2109 200.891H16.8109ZM14.9377 196.937H9.60476V197.537H14.9377V196.937ZM9.40141 197.016C8.52542 197.824 7.67793 199.267 7.67793 200.891H8.27793C8.27793 199.465 9.03044 198.174 9.80811 197.457L9.40141 197.016ZM7.67793 200.891C7.67793 202.341 8.16932 203.55 9.00029 204.397C9.83093 205.245 10.9835 205.713 12.2712 205.713V205.113C11.1321 205.113 10.138 204.701 9.42874 203.977C8.71978 203.254 8.27793 202.202 8.27793 200.891H7.67793ZM12.2712 205.713C13.5467 205.713 14.6863 205.244 15.5066 204.396C16.327 203.548 16.8109 202.34 16.8109 200.891H16.2109C16.2109 202.203 15.7749 203.256 15.0754 203.979C14.376 204.702 13.3958 205.113 12.2712 205.113V205.713ZM5.8511 201.628C5.8511 199.753 6.49182 198.361 7.41538 197.45L6.99414 197.023C5.94453 198.058 5.2511 199.61 5.2511 201.628H5.8511ZM7.20476 196.937H5.79135V197.537H7.20476V196.937ZM6.09135 197.237V194.503H5.49135V197.237H6.09135ZM5.79135 194.803H18.2444V194.203H5.79135V194.803ZM18.2444 194.803C20.4058 194.803 22.0149 195.483 23.0845 196.597C24.1563 197.712 24.7176 199.294 24.7176 201.154H25.3176C25.3176 199.175 24.7188 197.432 23.5172 196.181C22.3135 194.928 20.5361 194.203 18.2444 194.203V194.803ZM24.7176 201.154C24.7176 203.78 23.7657 205.352 23.3115 206.22L23.8432 206.498C24.2963 205.632 25.3176 203.943 25.3176 201.154H24.7176ZM23.6484 206.068L21.1685 205.463L21.0264 206.046L23.5062 206.651L23.6484 206.068ZM21.3495 205.917C21.9203 205.032 22.8645 203.369 22.8645 201.154H22.2645C22.2645 203.197 21.3941 204.741 20.8454 205.592L21.3495 205.917ZM22.8645 201.154C22.8645 200.069 22.5863 199.013 21.9245 198.224C21.2555 197.426 20.2255 196.937 18.8048 196.937V197.537C20.0773 197.537 20.9272 197.968 21.4647 198.609C22.0095 199.259 22.2645 200.162 22.2645 201.154H22.8645ZM18.8048 196.937H17.3109V197.537H18.8048V196.937ZM17.0917 197.441C17.9727 198.384 18.6377 199.836 18.6377 201.628H19.2377C19.2377 199.686 18.5161 198.087 17.5301 197.032L17.0917 197.441ZM18.6377 201.628C18.6377 205.391 15.7731 207.899 12.2712 207.899V208.499C16.0754 208.499 19.2377 205.75 19.2377 201.628H18.6377ZM12.2712 207.899C8.71466 207.899 5.8511 205.389 5.8511 201.628H5.2511C5.2511 205.752 8.4156 208.499 12.2712 208.499V207.899Z" fill="#15573F"/>
<path fill-rule="evenodd" clip-rule="evenodd" d="M9.49811 186.725C8.53836 186.725 7.92494 186.961 7.92494 187.828C7.92494 188.381 8.16458 188.959 8.37799 189.301L6.21824 189.485C5.95177 189.195 5.55116 188.013 5.55116 186.803C5.55116 185.226 6.32494 184.306 7.95177 184.069C6.48531 183.359 5.55116 182.334 5.55116 180.494C5.55116 179.206 6.03104 178.286 6.51153 177.996L8.96458 178.496C8.51153 178.785 8.11153 179.679 8.11153 180.889C8.11153 182.833 9.92433 183.622 11.7914 183.991H19.7377V186.725H9.49811Z" fill="#15573F"/>
<path fill-rule="evenodd" clip-rule="evenodd" d="M9.49811 186.725C8.53836 186.725 7.92494 186.961 7.92494 187.828C7.92494 188.381 8.16458 188.959 8.37799 189.301L6.21824 189.485C5.95177 189.195 5.55116 188.013 5.55116 186.803C5.55116 185.226 6.32494 184.306 7.95177 184.069C6.48531 183.359 5.55116 182.334 5.55116 180.494C5.55116 179.206 6.03104 178.286 6.51153 177.996L8.96458 178.496C8.51153 178.785 8.11153 179.679 8.11153 180.889C8.11153 182.833 9.92433 183.622 11.7914 183.991H19.7377V186.725H9.49811Z" stroke="#15573F" stroke-width="0.6"/>
<path fill-rule="evenodd" clip-rule="evenodd" d="M10.7783 163.566C9.17835 163.566 7.73811 164.644 7.73811 167.115C7.73811 169.691 9.49786 171.19 11.5247 171.4V163.619C11.3113 163.592 11.0186 163.566 10.7783 163.566ZM18.2174 161.121C19.3912 162.54 20.1113 164.512 20.1113 166.826C20.1113 172.005 16.8582 174.266 12.8046 174.266C8.69847 174.266 5.41798 171.479 5.41798 167.062C5.41798 162.882 8.0314 160.937 11.2314 160.937C12.0582 160.937 13.1784 161.068 13.6851 161.226V171.453C16.1113 171.19 17.7643 169.744 17.7643 166.747C17.7643 164.854 17.0174 163.251 16.218 162.199L18.2174 161.121Z" fill="#15573F"/>
<path d="M11.5247 171.4L11.4938 171.698L11.8247 171.733V171.4H11.5247ZM11.5247 163.619H11.8247V163.353L11.5616 163.321L11.5247 163.619ZM18.2174 161.121L18.4486 160.93L18.2917 160.74L18.075 160.857L18.2174 161.121ZM13.6851 161.226H13.9851V161.005L13.7741 160.939L13.6851 161.226ZM13.6851 171.453H13.3851V171.787L13.7174 171.751L13.6851 171.453ZM16.218 162.199L16.0756 161.935L15.767 162.101L15.9791 162.38L16.218 162.199ZM10.7783 163.266C9.91092 163.266 9.06822 163.559 8.44271 164.205C7.81651 164.851 7.43811 165.82 7.43811 167.115H8.03811C8.03811 165.938 8.37982 165.132 8.87375 164.622C9.36836 164.111 10.0458 163.866 10.7783 163.866V163.266ZM7.43811 167.115C7.43811 169.861 9.33072 171.474 11.4938 171.698L11.5556 171.102C9.66501 170.906 8.03811 169.521 8.03811 167.115H7.43811ZM11.8247 171.4V163.619H11.2247V171.4H11.8247ZM11.5616 163.321C11.3424 163.294 11.0361 163.266 10.7783 163.266V163.866C11.0011 163.866 11.2801 163.891 11.4878 163.916L11.5616 163.321ZM17.9862 161.312C19.1109 162.672 19.8113 164.575 19.8113 166.826H20.4113C20.4113 164.45 19.6714 162.408 18.4486 160.93L17.9862 161.312ZM19.8113 166.826C19.8113 169.35 19.0208 171.122 17.7751 172.267C16.5249 173.415 14.7783 173.966 12.8046 173.966V174.566C14.8845 174.566 16.7913 173.985 18.181 172.709C19.5753 171.428 20.4113 169.481 20.4113 166.826H19.8113ZM12.8046 173.966C10.8192 173.966 9.04849 173.293 7.77656 172.101C6.50701 170.912 5.71798 169.192 5.71798 167.062H5.11798C5.11798 169.349 5.9692 171.231 7.36642 172.539C8.76126 173.846 10.6838 174.566 12.8046 174.566V173.966ZM5.71798 167.062C5.71798 165.037 6.34924 163.59 7.33219 162.649C8.318 161.704 9.69083 161.237 11.2314 161.237V160.637C9.57196 160.637 8.03809 161.142 6.91719 162.215C5.79344 163.292 5.11798 164.907 5.11798 167.062H5.71798ZM11.2314 161.237C12.0431 161.237 13.1296 161.367 13.596 161.512L13.7741 160.939C13.2271 160.769 12.0734 160.637 11.2314 160.637V161.237ZM13.3851 161.226V171.453H13.9851V161.226H13.3851ZM13.7174 171.751C14.9804 171.614 16.0753 171.165 16.854 170.33C17.6344 169.492 18.0643 168.301 18.0643 166.747H17.4643C17.4643 168.189 17.0677 169.22 16.415 169.921C15.7607 170.623 14.8159 171.029 13.6528 171.155L13.7174 171.751ZM18.0643 166.747C18.0643 164.776 17.2874 163.11 16.4568 162.017L15.9791 162.38C16.7474 163.391 17.4643 164.932 17.4643 166.747H18.0643ZM16.3603 162.463L18.3597 161.385L18.075 160.857L16.0756 161.935L16.3603 162.463Z" fill="#15573F"/>
<path fill-rule="evenodd" clip-rule="evenodd" d="M10.7783 145.403C9.17835 145.403 7.73811 146.481 7.73811 148.952C7.73811 151.528 9.49786 153.028 11.5247 153.237V145.456C11.3113 145.43 11.0186 145.403 10.7783 145.403ZM18.2174 142.958C19.3912 144.377 20.1113 146.35 20.1113 148.663C20.1113 153.842 16.8582 156.103 12.8046 156.103C8.69847 156.103 5.41798 153.317 5.41798 148.899C5.41798 144.72 8.0314 142.774 11.2314 142.774C12.0582 142.774 13.1784 142.906 13.6851 143.063V153.29C16.1113 153.028 17.7643 151.581 17.7643 148.584C17.7643 146.691 17.0174 145.088 16.218 144.036L18.2174 142.958Z" fill="#15573F"/>
<path d="M11.5247 153.237L11.4938 153.536L11.8247 153.57V153.237H11.5247ZM11.5247 145.456H11.8247V145.191L11.5616 145.158L11.5247 145.456ZM18.2174 142.958L18.4486 142.767L18.2917 142.577L18.075 142.694L18.2174 142.958ZM13.6851 143.063H13.9851V142.842L13.7741 142.777L13.6851 143.063ZM13.6851 153.29H13.3851V153.624L13.7174 153.588L13.6851 153.29ZM16.218 144.036L16.0756 143.772L15.767 143.938L15.9791 144.218L16.218 144.036ZM10.7783 145.103C9.91092 145.103 9.06822 145.396 8.44271 146.042C7.81651 146.689 7.43811 147.658 7.43811 148.952H8.03811C8.03811 147.775 8.37982 146.97 8.87375 146.46C9.36836 145.949 10.0458 145.703 10.7783 145.703V145.103ZM7.43811 148.952C7.43811 151.698 9.33072 153.312 11.4938 153.536L11.5556 152.939C9.66501 152.743 8.03811 151.358 8.03811 148.952H7.43811ZM11.8247 153.237V145.456H11.2247V153.237H11.8247ZM11.5616 145.158C11.3424 145.131 11.0361 145.103 10.7783 145.103V145.703C11.0011 145.703 11.2801 145.728 11.4878 145.754L11.5616 145.158ZM17.9862 143.149C19.1109 144.509 19.8113 146.412 19.8113 148.663H20.4113C20.4113 146.288 19.6714 144.246 18.4486 142.767L17.9862 143.149ZM19.8113 148.663C19.8113 151.187 19.0208 152.96 17.7751 154.104C16.5249 155.253 14.7783 155.803 12.8046 155.803V156.403C14.8845 156.403 16.7913 155.823 18.181 154.546C19.5753 153.265 20.4113 151.318 20.4113 148.663H19.8113ZM12.8046 155.803C10.8192 155.803 9.04849 155.13 7.77656 153.939C6.50701 152.75 5.71798 151.03 5.71798 148.899H5.11798C5.11798 151.186 5.9692 153.068 7.36642 154.377C8.76126 155.683 10.6838 156.403 12.8046 156.403V155.803ZM5.71798 148.899C5.71798 146.874 6.34924 145.427 7.33219 144.486C8.318 143.542 9.69083 143.074 11.2314 143.074V142.474C9.57196 142.474 8.03809 142.979 6.91719 144.053C5.79344 145.129 5.11798 146.745 5.11798 148.899H5.71798ZM11.2314 143.074C12.0431 143.074 13.1296 143.205 13.596 143.35L13.7741 142.777C13.2271 142.607 12.0734 142.474 11.2314 142.474V143.074ZM13.3851 143.063V153.29H13.9851V143.063H13.3851ZM13.7174 153.588C14.9804 153.452 16.0753 153.003 16.854 152.167C17.6344 151.329 18.0643 150.139 18.0643 148.584H17.4643C17.4643 150.027 17.0677 151.058 16.415 151.758C15.7607 152.46 14.8159 152.866 13.6528 152.992L13.7174 153.588ZM18.0643 148.584C18.0643 146.613 17.2874 144.947 16.4568 143.855L15.9791 144.218C16.7474 145.229 17.4643 146.77 17.4643 148.584H18.0643ZM16.3603 144.3L18.3597 143.222L18.075 142.694L16.0756 143.772L16.3603 144.3Z" fill="#15573F"/>
<path fill-rule="evenodd" clip-rule="evenodd" d="M5.79128 134.233H7.92482C6.48519 133.261 5.55104 131.63 5.55104 129.501C5.55104 125.953 8.24433 124.322 11.7114 124.322H16.0577C16.9913 124.322 17.6309 124.06 17.6309 123.218C17.6309 122.745 17.4443 122.246 17.151 121.772L19.3645 121.588C19.7108 122.219 20.0047 123.218 20.0047 124.243C20.0047 126.11 18.9645 127.056 16.6712 127.056H12.1376C9.76507 127.056 8.11141 128.187 8.11141 130.448C8.11141 132.393 9.6047 133.76 11.1248 134.233H19.7376V136.968H5.79128V134.233Z" fill="#15573F"/>
<path fill-rule="evenodd" clip-rule="evenodd" d="M5.79128 134.233H7.92482C6.48519 133.261 5.55104 131.63 5.55104 129.501C5.55104 125.953 8.24433 124.322 11.7114 124.322H16.0577C16.9913 124.322 17.6309 124.06 17.6309 123.218C17.6309 122.745 17.4443 122.246 17.151 121.772L19.3645 121.588C19.7108 122.219 20.0047 123.218 20.0047 124.243C20.0047 126.11 18.9645 127.056 16.6712 127.056H12.1376C9.76507 127.056 8.11141 128.187 8.11141 130.448C8.11141 132.393 9.6047 133.76 11.1248 134.233H19.7376V136.968H5.79128V134.233Z" stroke="#15573F" stroke-width="0.6"/>
<path fill-rule="evenodd" clip-rule="evenodd" d="M2.2453 104.426H5.79103V99.0632H7.97762L7.97762 104.426H14.9112C16.7246 104.426 17.5782 103.637 17.5782 102.218C17.5782 101.166 17.0709 99.9306 16.5112 99.1684L18.6709 98.2745C19.4441 99.5098 20.0044 101.14 20.0044 103.033C20.0044 105.583 18.4313 107.16 15.4441 107.16H7.97762V109.737H5.79103V107.16L2.2453 106.845L2.2453 104.426Z" fill="#1A825A"/>
<path fill-rule="evenodd" clip-rule="evenodd" d="M2.2453 104.426H5.79103V99.0632H7.97762L7.97762 104.426H14.9112C16.7246 104.426 17.5782 103.637 17.5782 102.218C17.5782 101.166 17.0709 99.9306 16.5112 99.1684L18.6709 98.2745C19.4441 99.5098 20.0044 101.14 20.0044 103.033C20.0044 105.583 18.4313 107.16 15.4441 107.16H7.97762V109.737H5.79103V107.16L2.2453 106.845L2.2453 104.426Z" stroke="#1A825A" stroke-width="0.6"/>
<path fill-rule="evenodd" clip-rule="evenodd" d="M0.804871 90.4427H7.89816C6.4317 89.47 5.55121 87.8397 5.55121 85.7104C5.55121 82.1618 8.2445 80.5314 11.7116 80.5314H16.0579C16.9915 80.5314 17.6311 80.2687 17.6311 79.4271C17.6311 78.954 17.4445 78.5073 17.1512 77.9813L19.364 77.7974C19.711 78.4021 20.0043 79.4013 20.0043 80.4527C20.0043 82.3193 18.964 83.2655 16.6713 83.2655H12.1378C9.76463 83.2655 8.11097 84.3963 8.11097 86.6572C8.11097 88.6026 9.60487 89.9696 11.125 90.4427H19.7378V93.1768H0.804871L0.804871 90.4427Z" fill="#1A825A"/>
<path fill-rule="evenodd" clip-rule="evenodd" d="M0.804871 90.4427H7.89816C6.4317 89.47 5.55121 87.8397 5.55121 85.7104C5.55121 82.1618 8.24451 80.5314 11.7116 80.5314H16.0579C16.9915 80.5314 17.6311 80.2687 17.6311 79.4271C17.6311 78.954 17.4445 78.5073 17.1512 77.9813L19.364 77.7974C19.711 78.4021 20.0043 79.4013 20.0043 80.4527C20.0043 82.3193 18.964 83.2655 16.6713 83.2655H12.1378C9.76463 83.2655 8.11097 84.3963 8.11097 86.6572C8.11097 88.6026 9.60487 89.9696 11.125 90.4427H19.7378V93.1768H0.804871L0.804871 90.4427Z" stroke="#1A825A" stroke-width="0.6"/>
<path fill-rule="evenodd" clip-rule="evenodd" d="M5.79128 60.5813H16.0577C16.9913 60.5813 17.6309 60.3445 17.6309 59.5035C17.6309 59.0039 17.4443 58.5308 17.151 58.0312L19.3644 57.8208C19.7108 58.452 20.0047 59.5035 20.0047 60.5026C20.0047 62.0013 19.3376 62.8952 17.8974 63.2108C19.2577 64.2358 20.0047 65.9184 20.0047 68.0477C20.0047 71.5969 17.5242 73.2002 13.8712 73.2002H5.79128V70.4661H13.4712C16.0309 70.4661 17.4443 69.5728 17.4443 67.075C17.4443 65.1032 16.1913 63.8678 14.9644 63.3154H5.79128V60.5813Z" fill="#1A825A"/>
<path fill-rule="evenodd" clip-rule="evenodd" d="M5.79128 60.5813H16.0577C16.9913 60.5813 17.6309 60.3445 17.6309 59.5035C17.6309 59.0039 17.4443 58.5308 17.151 58.0312L19.3644 57.8208C19.7108 58.452 20.0047 59.5035 20.0047 60.5026C20.0047 62.0013 19.3376 62.8952 17.8974 63.2108C19.2577 64.2358 20.0047 65.9184 20.0047 68.0477C20.0047 71.5969 17.5242 73.2002 13.8712 73.2002H5.79128V70.4661H13.4712C16.0309 70.4661 17.4443 69.5728 17.4443 67.075C17.4443 65.1032 16.1913 63.8678 14.9644 63.3154H5.79128V60.5813Z" stroke="#1A825A" stroke-width="0.6"/>
<path fill-rule="evenodd" clip-rule="evenodd" d="M5.79127 50.069H7.87115C6.45835 49.1228 5.52481 47.5718 5.52481 45.4684C5.52481 42.997 6.5114 41.5777 8.43152 40.8942C6.77786 40.0261 5.55103 38.3176 5.55103 35.8992C5.55103 32.35 8.24432 30.8777 11.7114 30.8777H16.0577C16.9913 30.8777 17.6309 30.615 17.6309 29.7999C17.6309 29.3268 17.4443 28.8272 17.151 28.3276L19.3644 28.1172C19.7108 28.722 20.0047 29.8263 20.0047 30.799C20.0047 32.6391 18.9644 33.6118 16.6712 33.6118H12.1376C9.76505 33.6118 8.1114 34.6374 8.1114 36.8977C8.1114 38.7908 9.47115 40.0003 10.9913 40.4469H19.7376V43.181H12.1114C9.73823 43.181 8.1114 44.1801 8.1114 46.4411C8.1114 48.3864 9.49798 49.5959 11.0181 50.069H19.7376V52.8031H5.79127V50.069Z" fill="#1A825A"/>
<path fill-rule="evenodd" clip-rule="evenodd" d="M5.79127 50.069H7.87115C6.45835 49.1228 5.52481 47.5718 5.52481 45.4684C5.52481 42.997 6.5114 41.5777 8.43152 40.8942C6.77786 40.0261 5.55103 38.3176 5.55103 35.8992C5.55103 32.35 8.24432 30.8777 11.7114 30.8777H16.0577C16.9913 30.8777 17.6309 30.615 17.6309 29.7999C17.6309 29.3268 17.4443 28.8272 17.151 28.3276L19.3644 28.1172C19.7108 28.722 20.0047 29.8263 20.0047 30.799C20.0047 32.6391 18.9644 33.6118 16.6712 33.6118H12.1376C9.76505 33.6118 8.1114 34.6374 8.1114 36.8977C8.1114 38.7908 9.47115 40.0003 10.9913 40.4469H19.7376V43.181H12.1114C9.73823 43.181 8.1114 44.1801 8.1114 46.4411C8.1114 48.3864 9.49798 49.5959 11.0181 50.069H19.7376V52.8031H5.79127V50.069Z" stroke="#1A825A" stroke-width="0.6"/>
<path fill-rule="evenodd" clip-rule="evenodd" d="M7.97786 16.9232C7.97786 18.4483 8.77786 19.8154 9.60469 20.6041H16.0047C16.7779 19.8677 17.5779 18.4742 17.5779 16.9232C17.5779 14.1891 15.6047 12.4013 12.751 12.4013C9.9242 12.4013 7.97786 14.1891 7.97786 16.9232ZM20.0047 16.1874C20.0047 18.1592 19.2846 19.6308 18.2443 20.6041H19.7376V23.3375H0.804688L0.804688 20.6041H7.23152C6.24493 19.6049 5.55164 18.0798 5.55164 16.1874C5.55164 12.2438 8.53822 9.58848 12.751 9.58848C16.9644 9.58848 20.0047 12.2438 20.0047 16.1874Z" fill="#1A825A"/>
<path d="M9.60469 20.6041L9.39762 20.8211L9.48455 20.9041H9.60469V20.6041ZM16.0047 20.6041V20.9041H16.1247L16.2116 20.8213L16.0047 20.6041ZM18.2443 20.6041L18.0394 20.385L17.4846 20.9041H18.2443V20.6041ZM19.7376 20.6041H20.0376V20.3041H19.7376V20.6041ZM19.7376 23.3375V23.6375H20.0376V23.3375H19.7376ZM0.804688 23.3375H0.504687V23.6375H0.804688V23.3375ZM0.804688 20.6041V20.3041H0.504687V20.6041H0.804688ZM7.23152 20.6041V20.9041H7.94936L7.44498 20.3933L7.23152 20.6041ZM7.67786 16.9232C7.67786 18.5484 8.52588 19.9896 9.39762 20.8211L9.81176 20.387C9.02984 19.6411 8.27786 18.3483 8.27786 16.9232H7.67786ZM9.60469 20.9041H16.0047V20.3041H9.60469V20.9041ZM16.2116 20.8213C17.0336 20.0384 17.8779 18.5699 17.8779 16.9232H17.2779C17.2779 18.3784 16.5222 19.6969 15.7978 20.3868L16.2116 20.8213ZM17.8779 16.9232C17.8779 15.4804 17.3552 14.2676 16.4386 13.4171C15.5242 12.5685 14.2404 12.1013 12.751 12.1013V12.7013C14.1153 12.7013 15.2449 13.128 16.0305 13.8569C16.8139 14.5838 17.2779 15.6319 17.2779 16.9232H17.8779ZM12.751 12.1013C11.2743 12.1013 10.0034 12.5691 9.09902 13.4183C8.19283 14.2692 7.67786 15.4817 7.67786 16.9232H8.27786C8.27786 15.6306 8.73606 14.5822 9.50974 13.8557C10.2853 13.1274 11.4009 12.7013 12.751 12.7013V12.1013ZM19.7047 16.1874C19.7047 18.0808 19.0156 19.4716 18.0394 20.385L18.4493 20.8231C19.5535 19.79 20.3047 18.2375 20.3047 16.1874H19.7047ZM18.2443 20.9041H19.7376V20.3041H18.2443V20.9041ZM19.4376 20.6041V23.3375H20.0376V20.6041H19.4376ZM19.7376 23.0375H0.804688V23.6375H19.7376V23.0375ZM1.10469 23.3375L1.10469 20.6041H0.504687L0.504687 23.3375H1.10469ZM0.804688 20.9041H7.23152V20.3041H0.804688L0.804688 20.9041ZM7.44498 20.3933C6.51671 19.4532 5.85164 18.0051 5.85164 16.1874H5.25164C5.25164 18.1545 5.97315 19.7567 7.01805 20.8149L7.44498 20.3933ZM5.85164 16.1874C5.85164 14.2956 6.56587 12.7281 7.77326 11.6311C8.9831 10.532 10.7073 9.88848 12.751 9.88848V9.28848C10.5819 9.28848 8.70646 9.97265 7.3698 11.187C6.0307 12.4036 5.25164 14.1355 5.25164 16.1874H5.85164ZM12.751 9.88848C14.7952 9.88848 16.5337 10.5321 17.7573 11.6322C18.9783 12.7299 19.7047 14.2973 19.7047 16.1874H20.3047C20.3047 14.1338 19.5109 12.4019 18.1585 11.186C16.8086 9.97251 14.9203 9.28848 12.751 9.28848V9.88848Z" fill="#1A825A"/>
<path fill-rule="evenodd" clip-rule="evenodd" d="M16.3245 2.52046C16.3245 1.33738 16.9916 0.653867 18.1916 0.653867C19.4178 0.653867 20.0574 1.33738 20.0574 2.52046C20.0574 3.70353 19.4178 4.3606 18.1916 4.3606C16.9916 4.3606 16.3245 3.70353 16.3245 2.52046Z" fill="#1A825A"/>
<path fill-rule="evenodd" clip-rule="evenodd" d="M16.3245 2.52046C16.3245 1.33738 16.9916 0.653867 18.1916 0.653867C19.4178 0.653867 20.0574 1.33738 20.0574 2.52046C20.0574 3.70353 19.4178 4.3606 18.1916 4.3606C16.9916 4.3606 16.3245 3.70353 16.3245 2.52046Z" stroke="#1A825A" stroke-width="0.6"/>
</svg>
